#N canvas 470 289 450 323 10;
#X obj 247 157 tgl 15 0 empty empty empty 17 7 0 10 -262144 -1 -1 0
1;
#X obj 233 124 != 0;
#X obj 182 247 tgl 15 0 empty empty empty 17 7 0 10 -262144 -1 -1 0
1;
#X obj 186 164 bng 15 250 50 0 empty empty empty 17 7 0 10 -262144
-1 -1;
#X obj 131 124 == 60;
#X obj 233 88 r vel;
#X obj 131 89 r note;
#X obj 198 3 notein;
#X obj 164 49 s note;
#X obj 210 49 s vel;
#X obj 184 92 inlet;
#X floatatom 303 56 5 0 0 0 - - -, f 5;
#X floatatom 177 119 5 0 0 0 - - -, f 5;
#X obj 187 207 &;
#X obj 266 199 |;
#X obj 293 240 tgl 15 0 empty empty empty 17 7 0 10 -262144 -1 -1 1
1;
#X obj 7 17 notein 60;
#X floatatom 7 42 5 0 0 0 - - -, f 5;
#X connect 1 0 0 0;
#X connect 1 0 3 0;
#X connect 1 0 13 1;
#X connect 1 0 14 0;
#X connect 4 0 14 1;
#X connect 4 0 13 0;
#X connect 5 0 1 0;
#X connect 6 0 4 0;
#X connect 7 0 8 0;
#X connect 7 0 11 0;
#X connect 7 1 9 0;
#X connect 10 0 12 0;
#X connect 12 0 4 1;
#X connect 13 0 2 0;
#X connect 14 0 15 0;
#X connect 16 0 17 0;
