#N canvas 790 379 576 300 10;
#X obj 132 164 outlet;
#X obj 132 137 float;
#X obj 191 80 ./moocow/bytes2any 10;
#X obj 226 164 outlet;
#X obj 226 137 float;
#X obj 191 59 ./mrpeach/udpreceive 5004;
#X obj 132 108 route A;
#X obj 226 108 route B;
#X obj 290 165 outlet;
#X obj 290 138 float;
#X obj 290 109 route C, f 9;
#X connect 1 0 0 0;
#X connect 2 0 6 0;
#X connect 2 0 7 0;
#X connect 2 0 10 0;
#X connect 4 0 3 0;
#X connect 5 0 2 0;
#X connect 6 0 1 0;
#X connect 7 0 4 0;
#X connect 9 0 8 0;
#X connect 10 0 9 0;
